<svg width="401" height="86" viewBox="0 0 401 86" fill="none" xmlns="http://www.w3.org/2000/svg">
<path d="M16.0573 8.74719V0.117978H19.3168C19.9434 0.117978 20.4772 0.242978 20.9182 0.492978C21.3593 0.740169 21.6954 1.08427 21.9267 1.52528C22.1607 1.96348 22.2777 2.4691 22.2777 3.04213C22.2777 3.61517 22.1593 4.12079 21.9227 4.55899C21.686 4.99719 21.3431 5.33848 20.894 5.58286C20.4476 5.82725 19.9071 5.94944 19.2724 5.94944H17.1949V4.48736H18.99C19.3262 4.48736 19.6032 4.42697 19.821 4.30618C20.0415 4.18258 20.2056 4.01264 20.3131 3.79635C20.4234 3.57725 20.4785 3.32584 20.4785 3.04213C20.4785 2.75562 20.4234 2.50562 20.3131 2.29213C20.2056 2.07584 20.0415 1.90871 19.821 1.79073C19.6005 1.66994 19.3208 1.60955 18.9819 1.60955H17.804V8.74719H16.0573Z" fill="#535353"/>
<path d="M23.4122 8.74719V0.117978H26.6716C27.2956 0.117978 27.828 0.234551 28.2691 0.467697C28.7128 0.698034 29.0503 1.02528 29.2816 1.44944C29.5156 1.87079 29.6326 2.36657 29.6326 2.9368C29.6326 3.50983 29.5142 4.00281 29.2776 4.41573C29.0409 4.82584 28.698 5.14045 28.2489 5.35955C27.8025 5.57865 27.2619 5.6882 26.6273 5.6882H24.4449V4.22191H26.3449C26.6784 4.22191 26.9554 4.17416 27.1759 4.07865C27.3964 3.98315 27.5605 3.83989 27.668 3.64888C27.7783 3.45786 27.8334 3.2205 27.8334 2.9368C27.8334 2.65028 27.7783 2.40871 27.668 2.21208C27.5605 2.01545 27.3951 1.86657 27.1719 1.76545C26.9513 1.66152 26.673 1.60955 26.3368 1.60955H25.1589V8.74719H23.4122ZM27.8738 4.82022L29.927 8.74719H27.9988L25.9899 4.82022H27.8738Z" fill="#535353"/>
<path d="M38.4588 4.43258C38.4588 5.37359 38.2881 6.17416 37.9465 6.83427C37.6077 7.49438 37.1451 7.99859 36.5588 8.34691C35.9753 8.69241 35.3191 8.86517 34.5903 8.86517C33.8561 8.86517 33.1972 8.69101 32.6136 8.3427C32.0301 7.99438 31.5688 7.49017 31.23 6.83006C30.8911 6.16994 30.7217 5.37079 30.7217 4.43258C30.7217 3.49157 30.8911 2.69101 31.23 2.0309C31.5688 1.37079 32.0301 0.867977 32.6136 0.522472C33.1972 0.174157 33.8561 0 34.5903 0C35.3191 0 35.9753 0.174157 36.5588 0.522472C37.1451 0.867977 37.6077 1.37079 37.9465 2.0309C38.2881 2.69101 38.4588 3.49157 38.4588 4.43258ZM36.6879 4.43258C36.6879 3.82303 36.6005 3.30899 36.4257 2.89045C36.2536 2.47191 36.0102 2.15449 35.6956 1.9382C35.3809 1.72191 35.0125 1.61376 34.5903 1.61376C34.1681 1.61376 33.7996 1.72191 33.485 1.9382C33.1703 2.15449 32.9256 2.47191 32.7508 2.89045C32.5787 3.30899 32.4926 3.82303 32.4926 4.43258C32.4926 5.04213 32.5787 5.55618 32.7508 5.97472C32.9256 6.39326 33.1703 6.71067 33.485 6.92696C33.7996 7.14326 34.1681 7.2514 34.5903 7.2514C35.0125 7.2514 35.3809 7.14326 35.6956 6.92696C36.0102 6.71067 36.2536 6.39326 36.4257 5.97472C36.6005 5.55618 36.6879 5.04213 36.6879 4.43258Z" fill="#535353"/>
<path d="M39.7527 8.74719V0.117978H43.0121C43.6387 0.117978 44.1726 0.242978 44.6136 0.492978C45.0547 0.740169 45.3908 1.08427 45.6221 1.52528C45.8561 1.96348 45.9731 2.4691 45.9731 3.04213C45.9731 3.61517 45.8547 4.12079 45.6181 4.55899C45.3814 4.99719 45.0385 5.33848 44.5894 5.58286C44.143 5.82725 43.6024 5.94944 42.9678 5.94944H40.8903V4.48736H42.6854C43.0216 4.48736 43.2985 4.42697 43.5164 4.30618C43.7369 4.18258 43.901 4.01264 44.0085 3.79635C44.1188 3.57725 44.1739 3.32584 44.1739 3.04213C44.1739 2.75562 44.1188 2.50562 44.0085 2.29213C43.901 2.07584 43.7369 1.90871 43.5164 1.79073C43.2959 1.66994 43.0162 1.60955 42.6773 1.60955H41.4994V8.74719H39.7527Z" fill="#535353"/>
<path d="M47.1076 8.74719V0.117978H52.6744V1.62219H48.8543V3.67837H52.388V5.18258H48.8543V7.24298H52.6906V8.74719H47.1076Z" fill="#535353"/>
<path d="M54.0631 8.74719V0.117978H57.3226C57.9465 0.117978 58.479 0.234551 58.92 0.467697C59.3637 0.698034 59.7012 1.02528 59.9325 1.44944C60.1665 1.87079 60.2835 2.36657 60.2835 2.9368C60.2835 3.50983 60.1651 4.00281 59.9285 4.41573C59.6918 4.82584 59.3489 5.14045 58.8998 5.35955C58.4534 5.57865 57.9129 5.6882 57.2782 5.6882H55.0958V4.22191H56.9958C57.3293 4.22191 57.6063 4.17416 57.8268 4.07865C58.0473 3.98315 58.2114 3.83989 58.3189 3.64888C58.4292 3.45786 58.4843 3.2205 58.4843 2.9368C58.4843 2.65028 58.4292 2.40871 58.3189 2.21208C58.2114 2.01545 58.046 1.86657 57.8228 1.76545C57.6022 1.66152 57.3239 1.60955 56.9877 1.60955H55.8098V8.74719H54.0631ZM58.5247 4.82022L60.5779 8.74719H58.6497L56.6408 4.82022H58.5247Z" fill="#535353"/>
<path d="M61.2032 1.62219V0.117978H67.9883V1.62219H65.459V8.74719H63.7325V1.62219H61.2032Z" fill="#535353"/>
<path d="M70.8524 0.117978V8.74719H69.1057V0.117978H70.8524Z" fill="#535353"/>
<path d="M72.2895 8.74719V0.117978H77.8563V1.62219H74.0362V3.67837H77.5699V5.18258H74.0362V7.24298H77.8725V8.74719H72.2895Z" fill="#535353"/>
<path d="M83.7267 2.59972C83.6945 2.25983 83.556 1.99579 83.3112 1.80758C83.0665 1.61938 82.7344 1.52528 82.3148 1.52528C82.0298 1.52528 81.7891 1.56742 81.5928 1.65169C81.3965 1.73315 81.2459 1.84691 81.141 1.99298C81.0388 2.13904 80.9877 2.30477 80.9877 2.49017C80.9823 2.64466 81.0132 2.77949 81.0805 2.89466C81.1504 3.00983 81.2459 3.10955 81.3669 3.19382C81.4879 3.27528 81.6277 3.34691 81.7864 3.40871C81.9451 3.4677 82.1145 3.51826 82.2947 3.56039L83.0369 3.74579C83.3973 3.83006 83.7281 3.94241 84.0293 4.08286C84.3305 4.22331 84.5913 4.39607 84.8119 4.60112C85.0324 4.80618 85.2032 5.04775 85.3242 5.32584C85.4479 5.60393 85.5111 5.92275 85.5138 6.2823C85.5111 6.81039 85.382 7.26826 85.1265 7.6559C84.8737 8.04073 84.508 8.33989 84.0293 8.55337C83.5533 8.76404 82.9791 8.86938 82.3068 8.86938C81.6398 8.86938 81.059 8.76264 80.5641 8.54916C80.072 8.33567 79.6874 8.01966 79.4104 7.60112C79.1361 7.17977 78.9922 6.65871 78.9788 6.03792H80.669C80.6878 6.32725 80.7672 6.56882 80.907 6.76264C81.0495 6.95365 81.2391 7.09831 81.4758 7.19663C81.7151 7.29213 81.9854 7.33989 82.2866 7.33989C82.5824 7.33989 82.8393 7.29494 83.0571 7.20505C83.2776 7.11517 83.4484 6.99017 83.5694 6.83006C83.6904 6.66994 83.751 6.48595 83.751 6.27809C83.751 6.08427 83.6958 5.92135 83.5855 5.78932C83.478 5.6573 83.3193 5.54494 83.1096 5.45225C82.9025 5.35955 82.6483 5.27528 82.3471 5.19944L81.4476 4.96348C80.751 4.78652 80.2011 4.50983 79.7977 4.13343C79.3943 3.75702 79.1939 3.25 79.1966 2.61236C79.1939 2.08989 79.3271 1.63343 79.596 1.24298C79.8676 0.852528 80.2401 0.547753 80.7134 0.328652C81.1867 0.109551 81.7246 0 82.327 0C82.9401 0 83.4753 0.109551 83.9325 0.328652C84.3923 0.547753 84.75 0.852528 85.0055 1.24298C85.261 1.63343 85.3928 2.08567 85.4008 2.59972H83.7267Z" fill="#535353"/>
<path d="M25.1324 39.5091H15.8902V11.3616H25.2088C27.8313 11.3616 30.0888 11.9251 31.9813 13.0521C33.8739 14.1699 35.3294 15.778 36.3478 17.8762C37.3747 19.9744 37.8882 22.485 37.8882 25.4078C37.8882 28.3399 37.3747 30.8596 36.3478 32.967C35.3294 35.0744 33.8654 36.6916 31.9559 37.8186C30.0548 38.9456 27.7803 39.5091 25.1324 39.5091ZM21.4025 34.4101H24.9033C26.5328 34.4101 27.9034 34.0986 29.0152 33.4755C30.1354 32.8433 30.9756 31.8675 31.5358 30.5481C32.1044 29.2195 32.3887 27.5061 32.3887 25.4078C32.3887 23.3279 32.1044 21.6283 31.5358 20.3089C30.9756 18.9895 30.1397 18.0182 29.0279 17.3952C27.9161 16.7721 26.5455 16.4606 24.916 16.4606H21.4025V34.4101Z" fill="#535353"/>
<path d="M41.9714 39.5091V11.3616H47.4836V22.9752H58.6736V11.3616H64.173V39.5091H58.6736V27.8817H47.4836V39.5091H41.9714Z" fill="#535353"/>
<path d="M73.2115 39.5091H67.3047L76.305 11.3616H83.4085L92.3961 39.5091H86.4892L79.9586 17.7937H79.7549L73.2115 39.5091ZM72.8424 28.4452H86.7948V33.0907H72.8424V28.4452Z" fill="#535353"/>
<path d="M105.018 39.8939C103.117 39.8939 101.424 39.5411 99.9388 38.8356C98.4621 38.1209 97.2951 37.1405 96.438 35.8944C95.5893 34.6391 95.1522 33.1915 95.1267 31.5514H100.677C100.711 32.2385 100.919 32.8433 101.301 33.3655C101.691 33.8786 102.209 34.2772 102.854 34.5613C103.499 34.8453 104.225 34.9873 105.031 34.9873C105.871 34.9873 106.614 34.827 107.259 34.5063C107.904 34.1856 108.409 33.7412 108.774 33.1731C109.139 32.605 109.321 31.9499 109.321 31.2078C109.321 30.4564 109.126 29.7921 108.735 29.2149C108.354 28.6285 107.802 28.1704 107.08 27.8405C106.368 27.5107 105.519 27.3457 104.534 27.3457H102.103V22.9752H104.534C105.366 22.9752 106.1 22.8194 106.737 22.5079C107.382 22.1964 107.882 21.7657 108.239 21.216C108.595 20.657 108.774 20.0065 108.774 19.2643C108.774 18.5588 108.617 17.9403 108.303 17.4089C107.997 16.8683 107.564 16.4468 107.004 16.1445C106.452 15.8421 105.807 15.6909 105.069 15.6909C104.322 15.6909 103.639 15.8375 103.02 16.1307C102.4 16.4148 101.903 16.8225 101.53 17.3539C101.157 17.8854 100.957 18.5084 100.932 19.2231H95.6487C95.6741 17.6013 96.1027 16.172 96.9344 14.935C97.7662 13.6981 98.8864 12.7314 100.295 12.0351C101.713 11.3295 103.312 10.9768 105.095 10.9768C106.894 10.9768 108.468 11.3295 109.817 12.0351C111.167 12.7406 112.215 13.6935 112.962 14.8938C113.717 16.0849 114.091 17.4227 114.082 18.907C114.091 20.483 113.637 21.7978 112.72 22.8515C111.812 23.9052 110.628 24.574 109.168 24.8581V25.078C111.086 25.3437 112.546 26.063 113.547 27.2358C114.557 28.3994 115.058 29.8563 115.05 31.6063C115.058 33.2098 114.63 34.6346 113.764 35.8807C112.907 37.1268 111.723 38.1072 110.212 38.8219C108.701 39.5365 106.97 39.8939 105.018 39.8939Z" fill="#A6A4A7"/>
<path d="M129.018 39.8939C127.677 39.8847 126.383 39.6419 125.135 39.1655C123.896 38.689 122.784 37.9148 121.8 36.8427C120.815 35.7707 120.035 34.3505 119.457 32.5821C118.889 30.8138 118.605 28.6422 118.605 26.0675C118.613 23.7036 118.863 21.5916 119.356 19.7316C119.856 17.8625 120.569 16.2773 121.494 14.9762C122.428 13.6752 123.544 12.6856 124.842 12.0076C126.141 11.3204 127.596 10.9768 129.209 10.9768C130.949 10.9768 132.485 11.3433 133.817 12.0763C135.15 12.8001 136.219 13.7851 137.025 15.0312C137.84 16.2773 138.332 17.6746 138.502 19.2231H133.066C132.854 18.2427 132.408 17.473 131.729 16.9141C131.051 16.3552 130.21 16.0758 129.209 16.0758C127.512 16.0758 126.222 16.8729 125.339 18.4672C124.465 20.0615 124.019 22.2284 124.002 24.968H124.18C124.571 24.1342 125.097 23.4241 125.759 22.8377C126.429 22.2422 127.189 21.7886 128.038 21.4771C128.895 21.1564 129.799 20.9961 130.749 20.9961C132.294 20.9961 133.669 21.39 134.874 22.178C136.079 22.9569 137.03 24.0289 137.725 25.3941C138.421 26.7593 138.769 28.3215 138.769 30.0808C138.769 31.9866 138.358 33.6817 137.535 35.166C136.72 36.6503 135.578 37.814 134.11 38.6569C132.65 39.4907 130.953 39.903 129.018 39.8939ZM128.992 35.221C129.841 35.221 130.601 35.0011 131.271 34.5613C131.942 34.1215 132.468 33.5259 132.85 32.7746C133.232 32.0232 133.423 31.1803 133.423 30.2457C133.423 29.3111 133.232 28.4727 132.85 27.7306C132.476 26.9884 131.959 26.3974 131.297 25.9576C130.635 25.5178 129.879 25.2979 129.031 25.2979C128.394 25.2979 127.804 25.4262 127.261 25.6827C126.726 25.9393 126.255 26.2966 125.848 26.7547C125.449 27.2129 125.135 27.7443 124.906 28.349C124.677 28.9446 124.562 29.5814 124.562 30.2594C124.562 31.1665 124.753 31.9957 125.135 32.7471C125.526 33.4984 126.052 34.0986 126.714 34.5475C127.384 34.9965 128.144 35.221 128.992 35.221Z" fill="#A6A4A7"/>
<path d="M152.9 40.1275C150.71 40.1184 148.826 39.5365 147.248 38.3821C145.678 37.2276 144.468 35.5554 143.62 33.3655C142.779 31.1757 142.364 28.5414 142.372 25.4628C142.372 22.3934 142.792 19.7774 143.632 17.6151C144.481 15.4527 145.69 13.808 147.26 12.681C148.839 11.5449 150.719 10.9768 152.9 10.9768C155.081 10.9768 156.957 11.5449 158.527 12.681C160.105 13.8172 161.319 15.4664 162.168 17.6288C163.016 19.782 163.436 22.3934 163.428 25.4628C163.428 28.5506 163.004 31.1894 162.155 33.3793C161.315 35.5691 160.11 37.2413 158.539 38.3958C156.969 39.5503 155.09 40.1275 152.9 40.1275ZM152.9 35.1935C154.394 35.1935 155.586 34.3826 156.477 32.7608C157.368 31.139 157.81 28.7064 157.801 25.4628C157.801 23.3279 157.597 21.5504 157.19 20.1302C156.791 18.71 156.223 17.6426 155.484 16.9279C154.754 16.2132 153.893 15.8558 152.9 15.8558C151.415 15.8558 150.227 16.6576 149.335 18.261C148.444 19.8645 147.995 22.2651 147.986 25.4628C147.986 27.6252 148.186 29.4302 148.584 30.8779C148.992 32.3164 149.565 33.3976 150.303 34.1215C151.041 34.8361 151.907 35.1935 152.9 35.1935Z" fill="#A6A4A7"/>
<path d="M15.8197 47.9386H23.0844V74.107C23.0844 76.5259 22.5809 78.6272 21.5738 80.4108C20.578 82.1945 19.1918 83.5689 17.4152 84.534C15.6386 85.4991 13.5735 85.9817 11.2198 85.9817C9.12639 85.9817 7.22534 85.5846 5.51665 84.7905C3.81928 83.9842 2.4727 82.7626 1.4769 81.1255C0.481113 79.4762 -0.0111251 77.4055 0.000190716 74.9133H7.31586C7.33849 75.9028 7.52521 76.7519 7.876 77.4605C8.2381 78.1568 8.73034 78.6944 9.35271 79.0731C9.98639 79.4396 10.7332 79.6228 11.5932 79.6228C12.4985 79.6228 13.2623 79.4152 13.8847 78.9998C14.5184 78.5722 14.9993 77.9491 15.3275 77.1306C15.6556 76.3121 15.8197 75.3042 15.8197 74.107V47.9386Z" fill="#535353"/>
<path d="M61.1056 66.7036C61.1056 70.7962 60.387 74.278 58.9499 77.1489C57.5241 80.0199 55.5778 82.2128 53.1109 83.7277C50.6554 85.2303 47.8944 85.9817 44.8278 85.9817C41.7386 85.9817 38.9662 85.2242 36.5107 83.7094C34.0551 82.1945 32.1145 80.0016 30.6887 77.1306C29.2629 74.2597 28.55 70.784 28.55 66.7036C28.55 62.611 29.2629 59.1292 30.6887 56.2583C32.1145 53.3873 34.0551 51.2005 36.5107 49.6978C38.9662 48.183 41.7386 47.4255 44.8278 47.4255C47.8944 47.4255 50.6554 48.183 53.1109 49.6978C55.5778 51.2005 57.5241 53.3873 58.9499 56.2583C60.387 59.1292 61.1056 62.611 61.1056 66.7036ZM53.6541 66.7036C53.6541 64.0526 53.2863 61.8169 52.5508 59.9966C51.8266 58.1763 50.8025 56.7958 49.4786 55.8551C48.1546 54.9144 46.6044 54.4441 44.8278 54.4441C43.0512 54.4441 41.5009 54.9144 40.177 55.8551C38.853 56.7958 37.8233 58.1763 37.0878 59.9966C36.3635 61.8169 36.0014 64.0526 36.0014 66.7036C36.0014 69.3546 36.3635 71.5903 37.0878 73.4106C37.8233 75.2309 38.853 76.6114 40.177 77.5521C41.5009 78.4928 43.0512 78.9631 44.8278 78.9631C46.6044 78.9631 48.1546 78.4928 49.4786 77.5521C50.8025 76.6114 51.8266 75.2309 52.5508 73.4106C53.2863 71.5903 53.6541 69.3546 53.6541 66.7036Z" fill="#535353"/>
<path d="M73.8995 47.9386V85.4686H66.5499V47.9386H73.8995Z" fill="#535353"/>
<path d="M109.022 47.9386V85.4686H102.674L87.5506 61.8474H87.296V85.4686H79.9464V47.9386H86.3964L101.401 71.5415H101.707V47.9386H109.022Z" fill="#535353"/>
<path d="M113.771 54.4807V47.9386H142.321V54.4807H131.678V85.4686H124.413V54.4807H113.771Z" fill="#535353"/>
<path d="M153.303 47.9386L161.705 76.4526H162.027L170.446 47.9386H178.593L166.61 85.4686H157.139L145.138 47.9386H153.303Z" fill="#A6A4A7"/>
<path d="M182.777 85.4686V47.9386H206.201V54.4807H190.127V63.4234H204.996V69.9655H190.127V78.9265H206.269V85.4686H182.777Z" fill="#A6A4A7"/>
<path d="M241.12 47.9386V85.4686H234.772L219.649 61.8474H219.394V85.4686H212.044V47.9386H218.494L233.499 71.5415H233.805V47.9386H241.12Z" fill="#A6A4A7"/>
<path d="M245.869 54.4807V47.9386H274.419V54.4807H263.776V85.4686H256.511V54.4807H245.869Z" fill="#A6A4A7"/>
<path d="M300.592 47.9386H307.942V72.3111C307.942 75.0477 307.336 77.4421 306.125 79.4946C304.926 81.547 303.246 83.1474 301.084 84.2958C298.923 85.4319 296.405 86 293.531 86C290.645 86 288.122 85.4319 285.961 84.2958C283.799 83.1474 282.119 81.547 280.919 79.4946C279.72 77.4421 279.12 75.0477 279.12 72.3111V47.9386H286.47V71.6331C286.47 73.0624 286.758 74.333 287.336 75.4447C287.924 76.5564 288.75 77.4299 289.814 78.0652C290.877 78.7005 292.116 79.0181 293.531 79.0181C294.957 79.0181 296.196 78.7005 297.248 78.0652C298.312 77.4299 299.132 76.5564 299.709 75.4447C300.298 74.333 300.592 73.0624 300.592 71.6331V47.9386Z" fill="#A6A4A7"/>
<path d="M313.988 85.4686V47.9386H327.703C330.328 47.9386 332.569 48.4456 334.425 49.4596C336.292 50.4614 337.712 51.8847 338.685 53.7294C339.67 55.5619 340.162 57.7182 340.162 60.1982C340.162 62.6904 339.664 64.8344 338.668 66.6303C337.672 68.4139 336.23 69.7822 334.34 70.7351C332.462 71.688 330.187 72.1645 327.517 72.1645H318.334V65.7873H326.328C327.732 65.7873 328.897 65.5797 329.825 65.1643C330.753 64.7489 331.443 64.1259 331.896 63.2951C332.36 62.4644 332.592 61.4321 332.592 60.1982C332.592 58.9521 332.36 57.9014 331.896 57.0462C331.443 56.1911 330.747 55.5436 329.808 55.1038C328.88 54.6518 327.709 54.4257 326.294 54.4257H321.338V85.4686H313.988ZM332.761 68.3895L341.401 85.4686H333.288L324.835 68.3895H332.761Z" fill="#A6A4A7"/>
<path d="M345.356 85.4686V47.9386H368.78V54.4807H352.706V63.4234H367.574V69.9655H352.706V78.9265H368.848V85.4686H345.356Z" fill="#A6A4A7"/>
<path d="M393.481 58.7322C393.345 57.2539 392.762 56.1055 391.732 55.287C390.703 54.4685 389.305 54.0592 387.54 54.0592C386.34 54.0592 385.328 54.2425 384.502 54.609C383.676 54.9633 383.042 55.4581 382.6 56.0933C382.171 56.7286 381.956 57.4494 381.956 58.2557C381.933 58.9276 382.063 59.514 382.346 60.0149C382.64 60.5158 383.042 60.9495 383.551 61.316C384.06 61.6703 384.649 61.9818 385.316 62.2506C385.984 62.5071 386.697 62.727 387.455 62.9103L390.578 63.7166C392.094 64.0831 393.486 64.5718 394.754 65.1826C396.021 65.7935 397.119 66.5448 398.047 67.4366C398.974 68.3284 399.693 69.3791 400.202 70.5885C400.723 71.798 400.989 73.1846 401 74.7483C400.989 77.0451 400.446 79.0364 399.371 80.7224C398.307 82.396 396.768 83.6971 394.754 84.6256C392.751 85.5419 390.335 86 387.506 86C384.7 86 382.255 85.5358 380.173 84.6073C378.102 83.6788 376.484 82.3044 375.319 80.4841C374.165 78.6516 373.559 76.3854 373.503 73.6855H380.615C380.694 74.9438 381.028 75.9945 381.616 76.8374C382.216 77.6682 383.014 78.2973 384.009 78.7249C385.016 79.1403 386.154 79.348 387.421 79.348C388.666 79.348 389.746 79.1525 390.663 78.7616C391.591 78.3706 392.309 77.827 392.819 77.1306C393.328 76.4343 393.582 75.6341 393.582 74.73C393.582 73.8871 393.351 73.1785 392.887 72.6043C392.434 72.0301 391.766 71.5414 390.884 71.1383C390.012 70.7351 388.943 70.3686 387.676 70.0388L383.89 69.0126C380.96 68.2429 378.646 67.0396 376.948 65.4025C375.251 63.7655 374.408 61.5603 374.419 58.7871C374.408 56.5148 374.968 54.5296 376.1 52.8315C377.242 51.1333 378.81 49.8078 380.801 48.8549C382.793 47.902 385.056 47.4255 387.591 47.4255C390.171 47.4255 392.423 47.902 394.346 48.8549C396.281 49.8078 397.786 51.1333 398.861 52.8315C399.936 54.5296 400.491 56.4965 400.525 58.7322H393.481Z" fill="#A6A4A7"/>
<path d="M166.173 6.24888C166.173 8.58677 164.417 10.482 162.252 10.482C160.086 10.482 158.331 8.58677 158.331 6.24888C158.331 3.911 160.086 2.01577 162.252 2.01577C164.417 2.01577 166.173 3.911 166.173 6.24888Z" fill="#A5B359"/>
</svg>
